M48
; DRILL file KiCad 10.0.2 date 2026-06-23T00:39:51
; FORMAT={-:-/ absolute / metric / decimal}
; #@! TF.CreationDate,2026-06-23T00:39:51+05:30
; #@! TF.GenerationSoftware,Kicad,Pcbnew,10.0.2
; #@! TF.FileFunction,NonPlated,1,2,NPTH
FMAT,2
METRIC
; #@! TA.AperFunction,NonPlated,NPTH,ComponentDrill
T1C1.700
; #@! TA.AperFunction,NonPlated,NPTH,ComponentDrill
T2C1.850
; #@! TA.AperFunction,NonPlated,NPTH,ComponentDrill
T3C2.200
; #@! TA.AperFunction,NonPlated,NPTH,ComponentDrill
T4C4.000
%
G90
G05
T1
X155.265Y-107.43
X155.265Y-122.52
X155.265Y-137.61
X165.425Y-107.43
X165.425Y-122.52
X165.425Y-137.61
X170.355Y-107.43
X170.355Y-122.52
X170.355Y-137.61
X180.515Y-107.43
X180.515Y-122.52
X180.515Y-137.61
X185.445Y-107.43
X185.445Y-122.52
X185.445Y-137.61
X195.605Y-107.43
X195.605Y-122.52
X195.605Y-137.61
X200.535Y-107.43
X200.535Y-122.52
X200.535Y-137.61
X210.695Y-107.43
X210.695Y-122.52
X210.695Y-137.61
T2
X134.265Y-62.16
X139.115Y-62.16
T3
X133.965Y-59.13
X139.415Y-59.13
T4
X160.345Y-107.43
X160.345Y-122.52
X160.345Y-137.61
X175.435Y-107.43
X175.435Y-122.52
X175.435Y-137.61
X190.525Y-107.43
X190.525Y-122.52
X190.525Y-137.61
X205.615Y-107.43
X205.615Y-122.52
X205.615Y-137.61
M30
