M48
; DRILL file KiCad 10.0.2 date 2026-06-23T00:39:51
; FORMAT={-:-/ absolute / metric / decimal}
; #@! TF.CreationDate,2026-06-23T00:39:51+05:30
; #@! TF.GenerationSoftware,Kicad,Pcbnew,10.0.2
; #@! TF.FileFunction,Plated,1,2,PTH
FMAT,2
METRIC
; #@! TA.AperFunction,Plated,PTH,ComponentDrill
T1C1.000
; #@! TA.AperFunction,Plated,PTH,ComponentDrill
T2C1.500
; #@! TA.AperFunction,Plated,PTH,ComponentDrill
T3C2.700
%
G90
G05
T1
X127.8Y-59.0
X127.8Y-61.54
X127.8Y-64.08
X127.8Y-66.62
X127.8Y-69.16
X127.8Y-71.7
X127.8Y-74.24
X127.8Y-76.78
X127.8Y-79.32
X127.8Y-81.86
X127.8Y-84.4
X127.8Y-86.94
X127.8Y-89.48
X127.8Y-92.02
X127.8Y-94.56
X127.8Y-97.1
X127.8Y-99.64
X127.8Y-102.18
X127.8Y-104.72
X127.8Y-107.26
X129.625Y-133.88
X129.625Y-136.38
X129.625Y-138.88
X129.875Y-116.98
X129.875Y-119.48
X129.875Y-121.98
X144.125Y-133.88
X144.125Y-138.88
X144.375Y-116.98
X144.375Y-121.98
X145.58Y-59.0
X145.58Y-61.54
X145.58Y-64.08
X145.58Y-66.62
X145.58Y-69.16
X145.58Y-71.7
X145.58Y-74.24
X145.58Y-76.78
X145.58Y-79.32
X145.58Y-81.86
X145.58Y-84.4
X145.58Y-86.94
X145.58Y-89.48
X145.58Y-92.02
X145.58Y-94.56
X145.58Y-97.1
X145.58Y-99.64
X145.58Y-102.18
X145.58Y-104.72
X145.58Y-107.26
X152.667Y-66.32
X152.667Y-68.86
X152.667Y-71.4
X152.667Y-73.94
X152.667Y-76.48
X152.667Y-79.02
X152.667Y-81.56
X152.667Y-84.1
X152.667Y-86.64
X216.188Y-71.4
X216.188Y-73.94
X216.188Y-76.48
X216.188Y-79.02
X216.188Y-81.56
T2
X156.535Y-104.89
X156.535Y-119.98
X156.535Y-135.07
X162.885Y-102.35
X162.885Y-117.44
X162.885Y-132.53
X171.625Y-104.89
X171.625Y-119.98
X171.625Y-135.07
X177.975Y-102.35
X177.975Y-117.44
X177.975Y-132.53
X186.715Y-104.89
X186.715Y-119.98
X186.715Y-135.07
X193.065Y-102.35
X193.065Y-117.44
X193.065Y-132.53
X201.805Y-104.89
X201.805Y-119.98
X201.805Y-135.07
X208.155Y-102.35
X208.155Y-117.44
X208.155Y-132.53
T3
X154.167Y-59.43
X154.167Y-93.53
X215.367Y-59.43
X215.367Y-93.53
T2
G00X136.475Y-130.78
M15
G01X137.775Y-130.78
M16
G05
G00X136.475Y-141.98
M15
G01X137.775Y-141.98
M16
G05
G00X136.725Y-113.88
M15
G01X138.025Y-113.88
M16
G05
G00X136.725Y-125.08
M15
G01X138.025Y-125.08
M16
G05
M30
